<svg width="42" height="42" viewBox="0 0 42 42" fill="none" xmlns="http://www.w3.org/2000/svg">
<g clip-path="url(#clip0_128_2)">
<path d="M12.6 0.839996C12.3772 0.839996 12.1636 0.928496 12.006 1.08603C11.8485 1.24356 11.76 1.45721 11.76 1.68C11.76 1.90278 11.8485 2.11644 12.006 2.27397C12.1636 2.4315 12.3772 2.52 12.6 2.52C12.8228 2.52 13.0364 2.4315 13.194 2.27397C13.3515 2.11644 13.44 1.90278 13.44 1.68C13.44 1.45721 13.3515 1.24356 13.194 1.08603C13.0364 0.928496 12.8228 0.839996 12.6 0.839996ZM23.52 1.68C23.0744 1.68 22.6471 1.857 22.3321 2.17206C22.017 2.48712 21.84 2.91443 21.84 3.36C21.84 3.80556 22.017 4.23287 22.3321 4.54794C22.6471 4.863 23.0744 5.04 23.52 5.04C23.9656 5.04 24.3929 4.863 24.7079 4.54794C25.023 4.23287 25.2 3.80556 25.2 3.36C25.2 2.91443 25.023 2.48712 24.7079 2.17206C24.3929 1.857 23.9656 1.68 23.52 1.68ZM18.48 5.04C14.7361 5.04 11.5168 7.4567 10.4491 10.9889C7.3697 11.4215 5.04 14.0473 5.04 17.22C5.04 18.2213 5.2779 19.2008 5.73234 20.0878C4.7403 21.2882 4.2 22.7825 4.2 24.36C4.2 27.4453 6.31836 30.1108 9.24492 30.8634C9.2424 30.9365 9.24 31.0086 9.24 31.08C9.24 34.7852 12.2548 37.8 15.96 37.8C17.5216 37.8 18.9918 37.274 20.1846 36.3005C21.1918 37.2631 22.5196 37.8 23.94 37.8C26.486 37.8 28.6753 36.0117 29.2491 33.5984C29.3003 33.5992 29.3496 33.6 29.4 33.6C33.5689 33.6 36.96 30.2081 36.96 26.04C36.96 24.5792 36.5509 23.1883 35.7705 21.9745C36.5341 21.132 36.96 20.0466 36.96 18.9C36.96 16.7748 35.5127 14.974 33.5278 14.449C33.5757 14.1096 33.6 13.7726 33.6 13.44C33.6 9.27192 30.2089 5.88 26.04 5.88C25.0396 5.88 24.0675 6.07602 23.1443 6.46242C21.7575 5.53002 20.155 5.04 18.48 5.04ZM7.98 6.72C7.64583 6.72 7.32534 6.85275 7.08905 7.08904C6.85275 7.32534 6.72 7.64582 6.72 7.98C6.72 8.31417 6.85275 8.63465 7.08905 8.87095C7.32534 9.10725 7.64583 9.24 7.98 9.24C8.31417 9.24 8.63466 9.10725 8.87095 8.87095C9.10725 8.63465 9.24 8.31417 9.24 7.98C9.24 7.64582 9.10725 7.32534 8.87095 7.08904C8.63466 6.85275 8.31417 6.72 7.98 6.72ZM36.96 10.92C36.5144 10.92 36.0871 11.097 35.7721 11.4121C35.457 11.7271 35.28 12.1544 35.28 12.6C35.28 13.0456 35.457 13.4729 35.7721 13.7879C36.0871 14.103 36.5144 14.28 36.96 14.28C37.4056 14.28 37.8329 14.103 38.1479 13.7879C38.463 13.4729 38.64 13.0456 38.64 12.6C38.64 12.1544 38.463 11.7271 38.1479 11.4121C37.8329 11.097 37.4056 10.92 36.96 10.92ZM22.6308 12.6C23.7077 12.6 24.6165 13.2807 24.9769 14.2308C24.9928 14.2728 25.0417 14.2856 25.0753 14.2554C25.6768 13.7195 26.4755 13.4433 27.3558 13.4433C28.4058 13.4433 29.4 14.1734 29.4 15.8534C29.4 17.7434 28.245 19.4234 26.46 23.5184C26.287 23.9148 26.04 24.6137 26.04 25.1984C26.04 25.9342 26.46 26.88 28.14 26.88C28.8355 26.88 29.4 27.4445 29.4 28.14C29.4 28.8355 28.8355 29.4 28.14 29.4C22.995 29.4 22.68 26.67 22.68 26.04C22.68 25.3084 22.7417 24.8203 22.9425 24.255C22.9879 24.1273 25.9434 18.036 25.9695 17.9763C26.019 17.8629 26.0417 17.7461 26.04 17.6302C26.0358 17.311 25.8488 17.0075 25.5363 16.8705C25.1113 16.6841 24.6162 16.8778 24.4305 17.302C24.4305 17.302 20.6123 25.6421 20.4586 25.9957C20.1352 26.7399 19.2694 27.0812 18.5243 26.7569C17.9657 26.5142 17.6325 25.9665 17.6384 25.3936C17.64 25.2029 17.6808 25.0091 17.7614 24.8227C17.926 24.4438 20.0968 18.8583 20.0993 18.8508C20.1371 18.7517 20.1584 18.6443 20.1584 18.5309C20.16 18.0395 19.7606 17.64 19.2675 17.64C18.8853 17.64 18.5593 17.8815 18.4324 18.2191C17.8083 19.8521 15.4134 26.2028 15.1807 26.8849C14.8287 27.9164 13.8489 28.5516 12.7821 28.56C12.4864 28.5625 12.1845 28.5263 11.888 28.4255C10.5179 27.9584 9.77169 26.5122 10.2211 25.1951C10.5521 24.2232 12.9046 16.6464 13.2087 15.6401C13.6085 14.3188 14.5441 13.44 16.4341 13.44C17.7991 13.44 18.8377 14.28 19.6777 14.28C20.3211 14.28 20.9508 12.6 22.6308 12.6ZM41.16 16.8C40.9372 16.8 40.7236 16.8885 40.566 17.046C40.4085 17.2036 40.32 17.4172 40.32 17.64C40.32 17.8628 40.4085 18.0764 40.566 18.234C40.7236 18.3915 40.9372 18.48 41.16 18.48C41.3828 18.48 41.5964 18.3915 41.754 18.234C41.9115 18.0764 42 17.8628 42 17.64C42 17.4172 41.9115 17.2036 41.754 17.046C41.5964 16.8885 41.3828 16.8 41.16 16.8ZM1.68 17.64C1.23444 17.64 0.807122 17.817 0.492061 18.1321C0.177 18.4471 0 18.8744 0 19.32C0 19.7656 0.177 20.1929 0.492061 20.5079C0.807122 20.823 1.23444 21 1.68 21C2.12556 21 2.55288 20.823 2.86794 20.5079C3.183 20.1929 3.36 19.7656 3.36 19.32C3.36 18.8744 3.183 18.4471 2.86794 18.1321C2.55288 17.817 2.12556 17.64 1.68 17.64ZM39.06 21C38.7258 21 38.4053 21.1327 38.169 21.369C37.9327 21.6053 37.8 21.9258 37.8 22.26C37.8 22.5942 37.9327 22.9147 38.169 23.1509C38.4053 23.3872 38.7258 23.52 39.06 23.52C39.3942 23.52 39.7147 23.3872 39.951 23.1509C40.1873 22.9147 40.32 22.5942 40.32 22.26C40.32 21.9258 40.1873 21.6053 39.951 21.369C39.7147 21.1327 39.3942 21 39.06 21ZM6.72 32.76C6.49722 32.76 6.28356 32.8485 6.12603 33.006C5.9685 33.1636 5.88 33.3772 5.88 33.6C5.88 33.8228 5.9685 34.0364 6.12603 34.194C6.28356 34.3515 6.49722 34.44 6.72 34.44C6.94278 34.44 7.15644 34.3515 7.31397 34.194C7.4715 34.0364 7.56 33.8228 7.56 33.6C7.56 33.3772 7.4715 33.1636 7.31397 33.006C7.15644 32.8485 6.94278 32.76 6.72 32.76ZM31.92 35.28C31.4744 35.28 31.0471 35.457 30.7321 35.7721C30.417 36.0871 30.24 36.5144 30.24 36.96C30.24 37.4056 30.417 37.8329 30.7321 38.1479C31.0471 38.463 31.4744 38.64 31.92 38.64C32.3656 38.64 32.7929 38.463 33.1079 38.1479C33.423 37.8329 33.6 37.4056 33.6 36.96C33.6 36.5144 33.423 36.0871 33.1079 35.7721C32.7929 35.457 32.3656 35.28 31.92 35.28ZM19.74 38.64C19.4058 38.64 19.0853 38.7727 18.849 39.009C18.6127 39.2453 18.48 39.5658 18.48 39.9C18.48 40.2342 18.6127 40.5547 18.849 40.791C19.0853 41.0272 19.4058 41.16 19.74 41.16C20.0742 41.16 20.3947 41.0272 20.631 40.791C20.8672 40.5547 21 40.2342 21 39.9C21 39.5658 20.8672 39.2453 20.631 39.009C20.3947 38.7727 20.0742 38.64 19.74 38.64Z" fill="#30B9DC"/>
</g>
<defs>
<clipPath id="clip0_128_2">
<rect width="42" height="42" fill="white"/>
</clipPath>
</defs>
</svg>
